<svg width="95" height="26" viewBox="0 0 95 26" fill="none" xmlns="http://www.w3.org/2000/svg">
<mask id="path-1-outside-1_1_173" maskUnits="userSpaceOnUse" x="19.16" y="4.76001" width="75" height="16" fill="black">
<rect fill="white" x="19.16" y="4.76001" width="75" height="16"/>
<path d="M25.14 20.24C24.1533 20.24 23.2867 20.06 22.54 19.7C21.8067 19.34 21.2267 18.8267 20.8 18.16C20.3867 17.4933 20.1733 16.7 20.16 15.78H22.4C22.4133 16.4867 22.6533 17.0933 23.12 17.6C23.6 18.0933 24.2667 18.34 25.12 18.34C25.9067 18.34 26.52 18.16 26.96 17.8C27.4 17.4267 27.62 16.9467 27.62 16.36C27.62 15.8667 27.4867 15.46 27.22 15.14C26.9667 14.8067 26.5667 14.5133 26.02 14.26C25.4733 13.9933 24.7667 13.72 23.9 13.44C22.74 13.0667 21.8867 12.5533 21.34 11.9C20.7933 11.2333 20.52 10.42 20.52 9.46001C20.52 8.35334 20.92 7.46001 21.72 6.78001C22.52 6.10001 23.62 5.76001 25.02 5.76001C26.38 5.76001 27.4733 6.11334 28.3 6.82001C29.1267 7.51334 29.5533 8.48001 29.58 9.72001H27.32C27.32 9.38668 27.2267 9.06668 27.04 8.76001C26.8533 8.44001 26.5867 8.18001 26.24 7.98001C25.8933 7.76668 25.4667 7.66001 24.96 7.66001C24.3333 7.64668 23.8067 7.80001 23.38 8.12001C22.9533 8.42668 22.74 8.84668 22.74 9.38001C22.74 10.0333 23 10.5467 23.52 10.92C24.04 11.28 24.8867 11.6533 26.06 12.04C26.7933 12.28 27.44 12.5733 28 12.92C28.5733 13.2533 29.02 13.6867 29.34 14.22C29.6733 14.74 29.84 15.4067 29.84 16.22C29.84 16.9667 29.6533 17.6467 29.28 18.26C28.9067 18.86 28.3667 19.34 27.66 19.7C26.9667 20.06 26.1267 20.24 25.14 20.24Z"/>
<path d="M36.4122 20V6.00001H41.1522C42.2189 6.00001 43.0989 6.18668 43.7922 6.56001C44.4855 6.92001 44.9989 7.42001 45.3322 8.06001C45.6655 8.70001 45.8322 9.43334 45.8322 10.26C45.8322 11.0867 45.6655 11.82 45.3322 12.46C44.9989 13.1 44.4855 13.6067 43.7922 13.98C43.0989 14.34 42.2189 14.52 41.1522 14.52H38.5322V20H36.4122ZM38.5322 12.62H41.0522C41.9589 12.62 42.6189 12.4067 43.0322 11.98C43.4589 11.5533 43.6722 10.98 43.6722 10.26C43.6722 9.55334 43.4589 8.98668 43.0322 8.56001C42.6189 8.12001 41.9589 7.90001 41.0522 7.90001H38.5322V12.62Z"/>
<path d="M56.9844 20.24C55.851 20.24 54.871 19.9467 54.0444 19.36C53.2177 18.7733 52.5844 17.94 52.1444 16.86C51.7044 15.78 51.4844 14.4933 51.4844 13C51.4844 11.5067 51.7044 10.22 52.1444 9.14001C52.5844 8.06001 53.2177 7.22668 54.0444 6.64001C54.871 6.05334 55.851 5.76001 56.9844 5.76001C58.131 5.76001 59.111 6.05334 59.9244 6.64001C60.751 7.22668 61.3844 8.06001 61.8244 9.14001C62.2644 10.22 62.4844 11.5067 62.4844 13C62.4844 14.4933 62.2644 15.78 61.8244 16.86C61.3844 17.94 60.751 18.7733 59.9244 19.36C59.111 19.9467 58.131 20.24 56.9844 20.24ZM56.9844 18.24C57.9844 18.24 58.791 17.7933 59.4044 16.9C60.0177 15.9933 60.3244 14.6933 60.3244 13C60.3244 11.3067 60.0177 10.0133 59.4044 9.12001C58.791 8.21334 57.9844 7.76001 56.9844 7.76001C55.971 7.76001 55.1577 8.21334 54.5444 9.12001C53.9444 10.0133 53.6444 11.3067 53.6444 13C53.6444 14.6933 53.9444 15.9933 54.5444 16.9C55.1577 17.7933 55.971 18.24 56.9844 18.24Z"/>
<path d="M71.9166 20V7.90001H68.1566V6.00001H77.7966V7.90001H74.0366V20H71.9166Z"/>
<path d="M89.1088 20.24C88.1221 20.24 87.2554 20.06 86.5088 19.7C85.7754 19.34 85.1954 18.8267 84.7688 18.16C84.3554 17.4933 84.1421 16.7 84.1288 15.78H86.3688C86.3821 16.4867 86.6221 17.0933 87.0888 17.6C87.5688 18.0933 88.2354 18.34 89.0888 18.34C89.8754 18.34 90.4888 18.16 90.9288 17.8C91.3688 17.4267 91.5888 16.9467 91.5888 16.36C91.5888 15.8667 91.4554 15.46 91.1888 15.14C90.9354 14.8067 90.5354 14.5133 89.9888 14.26C89.4421 13.9933 88.7354 13.72 87.8688 13.44C86.7087 13.0667 85.8554 12.5533 85.3088 11.9C84.7621 11.2333 84.4888 10.42 84.4888 9.46001C84.4888 8.35334 84.8887 7.46001 85.6888 6.78001C86.4888 6.10001 87.5888 5.76001 88.9888 5.76001C90.3488 5.76001 91.4421 6.11334 92.2688 6.82001C93.0954 7.51334 93.5221 8.48001 93.5488 9.72001H91.2888C91.2888 9.38668 91.1954 9.06668 91.0088 8.76001C90.8221 8.44001 90.5554 8.18001 90.2088 7.98001C89.8621 7.76668 89.4354 7.66001 88.9288 7.66001C88.3021 7.64668 87.7754 7.80001 87.3488 8.12001C86.9221 8.42668 86.7088 8.84668 86.7088 9.38001C86.7088 10.0333 86.9688 10.5467 87.4888 10.92C88.0088 11.28 88.8554 11.6533 90.0288 12.04C90.7621 12.28 91.4088 12.5733 91.9688 12.92C92.5421 13.2533 92.9888 13.6867 93.3088 14.22C93.6421 14.74 93.8088 15.4067 93.8088 16.22C93.8088 16.9667 93.6221 17.6467 93.2488 18.26C92.8754 18.86 92.3354 19.34 91.6288 19.7C90.9354 20.06 90.0954 20.24 89.1088 20.24Z"/>
</mask>
<path d="M25.14 20.24C24.1533 20.24 23.2867 20.06 22.54 19.7C21.8067 19.34 21.2267 18.8267 20.8 18.16C20.3867 17.4933 20.1733 16.7 20.16 15.78H22.4C22.4133 16.4867 22.6533 17.0933 23.12 17.6C23.6 18.0933 24.2667 18.34 25.12 18.34C25.9067 18.34 26.52 18.16 26.96 17.8C27.4 17.4267 27.62 16.9467 27.62 16.36C27.62 15.8667 27.4867 15.46 27.22 15.14C26.9667 14.8067 26.5667 14.5133 26.02 14.26C25.4733 13.9933 24.7667 13.72 23.9 13.44C22.74 13.0667 21.8867 12.5533 21.34 11.9C20.7933 11.2333 20.52 10.42 20.52 9.46001C20.52 8.35334 20.92 7.46001 21.72 6.78001C22.52 6.10001 23.62 5.76001 25.02 5.76001C26.38 5.76001 27.4733 6.11334 28.3 6.82001C29.1267 7.51334 29.5533 8.48001 29.58 9.72001H27.32C27.32 9.38668 27.2267 9.06668 27.04 8.76001C26.8533 8.44001 26.5867 8.18001 26.24 7.98001C25.8933 7.76668 25.4667 7.66001 24.96 7.66001C24.3333 7.64668 23.8067 7.80001 23.38 8.12001C22.9533 8.42668 22.74 8.84668 22.74 9.38001C22.74 10.0333 23 10.5467 23.52 10.92C24.04 11.28 24.8867 11.6533 26.06 12.04C26.7933 12.28 27.44 12.5733 28 12.92C28.5733 13.2533 29.02 13.6867 29.34 14.22C29.6733 14.74 29.84 15.4067 29.84 16.22C29.84 16.9667 29.6533 17.6467 29.28 18.26C28.9067 18.86 28.3667 19.34 27.66 19.7C26.9667 20.06 26.1267 20.24 25.14 20.24Z" fill="#212121"/>
<path d="M36.4122 20V6.00001H41.1522C42.2189 6.00001 43.0989 6.18668 43.7922 6.56001C44.4855 6.92001 44.9989 7.42001 45.3322 8.06001C45.6655 8.70001 45.8322 9.43334 45.8322 10.26C45.8322 11.0867 45.6655 11.82 45.3322 12.46C44.9989 13.1 44.4855 13.6067 43.7922 13.98C43.0989 14.34 42.2189 14.52 41.1522 14.52H38.5322V20H36.4122ZM38.5322 12.62H41.0522C41.9589 12.62 42.6189 12.4067 43.0322 11.98C43.4589 11.5533 43.6722 10.98 43.6722 10.26C43.6722 9.55334 43.4589 8.98668 43.0322 8.56001C42.6189 8.12001 41.9589 7.90001 41.0522 7.90001H38.5322V12.62Z" fill="#212121"/>
<path d="M56.9844 20.24C55.851 20.24 54.871 19.9467 54.0444 19.36C53.2177 18.7733 52.5844 17.94 52.1444 16.86C51.7044 15.78 51.4844 14.4933 51.4844 13C51.4844 11.5067 51.7044 10.22 52.1444 9.14001C52.5844 8.06001 53.2177 7.22668 54.0444 6.64001C54.871 6.05334 55.851 5.76001 56.9844 5.76001C58.131 5.76001 59.111 6.05334 59.9244 6.64001C60.751 7.22668 61.3844 8.06001 61.8244 9.14001C62.2644 10.22 62.4844 11.5067 62.4844 13C62.4844 14.4933 62.2644 15.78 61.8244 16.86C61.3844 17.94 60.751 18.7733 59.9244 19.36C59.111 19.9467 58.131 20.24 56.9844 20.24ZM56.9844 18.24C57.9844 18.24 58.791 17.7933 59.4044 16.9C60.0177 15.9933 60.3244 14.6933 60.3244 13C60.3244 11.3067 60.0177 10.0133 59.4044 9.12001C58.791 8.21334 57.9844 7.76001 56.9844 7.76001C55.971 7.76001 55.1577 8.21334 54.5444 9.12001C53.9444 10.0133 53.6444 11.3067 53.6444 13C53.6444 14.6933 53.9444 15.9933 54.5444 16.9C55.1577 17.7933 55.971 18.24 56.9844 18.24Z" fill="#212121"/>
<path d="M71.9166 20V7.90001H68.1566V6.00001H77.7966V7.90001H74.0366V20H71.9166Z" fill="#212121"/>
<path d="M89.1088 20.24C88.1221 20.24 87.2554 20.06 86.5088 19.7C85.7754 19.34 85.1954 18.8267 84.7688 18.16C84.3554 17.4933 84.1421 16.7 84.1288 15.78H86.3688C86.3821 16.4867 86.6221 17.0933 87.0888 17.6C87.5688 18.0933 88.2354 18.34 89.0888 18.34C89.8754 18.34 90.4888 18.16 90.9288 17.8C91.3688 17.4267 91.5888 16.9467 91.5888 16.36C91.5888 15.8667 91.4554 15.46 91.1888 15.14C90.9354 14.8067 90.5354 14.5133 89.9888 14.26C89.4421 13.9933 88.7354 13.72 87.8688 13.44C86.7087 13.0667 85.8554 12.5533 85.3088 11.9C84.7621 11.2333 84.4888 10.42 84.4888 9.46001C84.4888 8.35334 84.8887 7.46001 85.6888 6.78001C86.4888 6.10001 87.5888 5.76001 88.9888 5.76001C90.3488 5.76001 91.4421 6.11334 92.2688 6.82001C93.0954 7.51334 93.5221 8.48001 93.5488 9.72001H91.2888C91.2888 9.38668 91.1954 9.06668 91.0088 8.76001C90.8221 8.44001 90.5554 8.18001 90.2088 7.98001C89.8621 7.76668 89.4354 7.66001 88.9288 7.66001C88.3021 7.64668 87.7754 7.80001 87.3488 8.12001C86.9221 8.42668 86.7088 8.84668 86.7088 9.38001C86.7088 10.0333 86.9688 10.5467 87.4888 10.92C88.0088 11.28 88.8554 11.6533 90.0288 12.04C90.7621 12.28 91.4088 12.5733 91.9688 12.92C92.5421 13.2533 92.9888 13.6867 93.3088 14.22C93.6421 14.74 93.8088 15.4067 93.8088 16.22C93.8088 16.9667 93.6221 17.6467 93.2488 18.26C92.8754 18.86 92.3354 19.34 91.6288 19.7C90.9354 20.06 90.0954 20.24 89.1088 20.24Z" fill="#212121"/>
<path d="M25.14 20.24C24.1533 20.24 23.2867 20.06 22.54 19.7C21.8067 19.34 21.2267 18.8267 20.8 18.16C20.3867 17.4933 20.1733 16.7 20.16 15.78H22.4C22.4133 16.4867 22.6533 17.0933 23.12 17.6C23.6 18.0933 24.2667 18.34 25.12 18.34C25.9067 18.34 26.52 18.16 26.96 17.8C27.4 17.4267 27.62 16.9467 27.62 16.36C27.62 15.8667 27.4867 15.46 27.22 15.14C26.9667 14.8067 26.5667 14.5133 26.02 14.26C25.4733 13.9933 24.7667 13.72 23.9 13.44C22.74 13.0667 21.8867 12.5533 21.34 11.9C20.7933 11.2333 20.52 10.42 20.52 9.46001C20.52 8.35334 20.92 7.46001 21.72 6.78001C22.52 6.10001 23.62 5.76001 25.02 5.76001C26.38 5.76001 27.4733 6.11334 28.3 6.82001C29.1267 7.51334 29.5533 8.48001 29.58 9.72001H27.32C27.32 9.38668 27.2267 9.06668 27.04 8.76001C26.8533 8.44001 26.5867 8.18001 26.24 7.98001C25.8933 7.76668 25.4667 7.66001 24.96 7.66001C24.3333 7.64668 23.8067 7.80001 23.38 8.12001C22.9533 8.42668 22.74 8.84668 22.74 9.38001C22.74 10.0333 23 10.5467 23.52 10.92C24.04 11.28 24.8867 11.6533 26.06 12.04C26.7933 12.28 27.44 12.5733 28 12.92C28.5733 13.2533 29.02 13.6867 29.34 14.22C29.6733 14.74 29.84 15.4067 29.84 16.22C29.84 16.9667 29.6533 17.6467 29.28 18.26C28.9067 18.86 28.3667 19.34 27.66 19.7C26.9667 20.06 26.1267 20.24 25.14 20.24Z" stroke="#212121" stroke-width="0.4" mask="url(#path-1-outside-1_1_173)"/>
<path d="M36.4122 20V6.00001H41.1522C42.2189 6.00001 43.0989 6.18668 43.7922 6.56001C44.4855 6.92001 44.9989 7.42001 45.3322 8.06001C45.6655 8.70001 45.8322 9.43334 45.8322 10.26C45.8322 11.0867 45.6655 11.82 45.3322 12.46C44.9989 13.1 44.4855 13.6067 43.7922 13.98C43.0989 14.34 42.2189 14.52 41.1522 14.52H38.5322V20H36.4122ZM38.5322 12.62H41.0522C41.9589 12.62 42.6189 12.4067 43.0322 11.98C43.4589 11.5533 43.6722 10.98 43.6722 10.26C43.6722 9.55334 43.4589 8.98668 43.0322 8.56001C42.6189 8.12001 41.9589 7.90001 41.0522 7.90001H38.5322V12.62Z" stroke="#212121" stroke-width="0.4" mask="url(#path-1-outside-1_1_173)"/>
<path d="M56.9844 20.24C55.851 20.24 54.871 19.9467 54.0444 19.36C53.2177 18.7733 52.5844 17.94 52.1444 16.86C51.7044 15.78 51.4844 14.4933 51.4844 13C51.4844 11.5067 51.7044 10.22 52.1444 9.14001C52.5844 8.06001 53.2177 7.22668 54.0444 6.64001C54.871 6.05334 55.851 5.76001 56.9844 5.76001C58.131 5.76001 59.111 6.05334 59.9244 6.64001C60.751 7.22668 61.3844 8.06001 61.8244 9.14001C62.2644 10.22 62.4844 11.5067 62.4844 13C62.4844 14.4933 62.2644 15.78 61.8244 16.86C61.3844 17.94 60.751 18.7733 59.9244 19.36C59.111 19.9467 58.131 20.24 56.9844 20.24ZM56.9844 18.24C57.9844 18.24 58.791 17.7933 59.4044 16.9C60.0177 15.9933 60.3244 14.6933 60.3244 13C60.3244 11.3067 60.0177 10.0133 59.4044 9.12001C58.791 8.21334 57.9844 7.76001 56.9844 7.76001C55.971 7.76001 55.1577 8.21334 54.5444 9.12001C53.9444 10.0133 53.6444 11.3067 53.6444 13C53.6444 14.6933 53.9444 15.9933 54.5444 16.9C55.1577 17.7933 55.971 18.24 56.9844 18.24Z" stroke="#212121" stroke-width="0.4" mask="url(#path-1-outside-1_1_173)"/>
<path d="M71.9166 20V7.90001H68.1566V6.00001H77.7966V7.90001H74.0366V20H71.9166Z" stroke="#212121" stroke-width="0.4" mask="url(#path-1-outside-1_1_173)"/>
<path d="M89.1088 20.24C88.1221 20.24 87.2554 20.06 86.5088 19.7C85.7754 19.34 85.1954 18.8267 84.7688 18.16C84.3554 17.4933 84.1421 16.7 84.1288 15.78H86.3688C86.3821 16.4867 86.6221 17.0933 87.0888 17.6C87.5688 18.0933 88.2354 18.34 89.0888 18.34C89.8754 18.34 90.4888 18.16 90.9288 17.8C91.3688 17.4267 91.5888 16.9467 91.5888 16.36C91.5888 15.8667 91.4554 15.46 91.1888 15.14C90.9354 14.8067 90.5354 14.5133 89.9888 14.26C89.4421 13.9933 88.7354 13.72 87.8688 13.44C86.7087 13.0667 85.8554 12.5533 85.3088 11.9C84.7621 11.2333 84.4888 10.42 84.4888 9.46001C84.4888 8.35334 84.8887 7.46001 85.6888 6.78001C86.4888 6.10001 87.5888 5.76001 88.9888 5.76001C90.3488 5.76001 91.4421 6.11334 92.2688 6.82001C93.0954 7.51334 93.5221 8.48001 93.5488 9.72001H91.2888C91.2888 9.38668 91.1954 9.06668 91.0088 8.76001C90.8221 8.44001 90.5554 8.18001 90.2088 7.98001C89.8621 7.76668 89.4354 7.66001 88.9288 7.66001C88.3021 7.64668 87.7754 7.80001 87.3488 8.12001C86.9221 8.42668 86.7088 8.84668 86.7088 9.38001C86.7088 10.0333 86.9688 10.5467 87.4888 10.92C88.0088 11.28 88.8554 11.6533 90.0288 12.04C90.7621 12.28 91.4088 12.5733 91.9688 12.92C92.5421 13.2533 92.9888 13.6867 93.3088 14.22C93.6421 14.74 93.8088 15.4067 93.8088 16.22C93.8088 16.9667 93.6221 17.6467 93.2488 18.26C92.8754 18.86 92.3354 19.34 91.6288 19.7C90.9354 20.06 90.0954 20.24 89.1088 20.24Z" stroke="#212121" stroke-width="0.4" mask="url(#path-1-outside-1_1_173)"/>
<path d="M6 4L6 12" stroke="#212121" stroke-width="2.5"/>
<path d="M1 9L6 13L11 9" stroke="#212121" stroke-width="2.5" stroke-linejoin="bevel"/>
<circle cx="6" cy="18" r="2" fill="#212121"/>
</svg>
